<svg width="24" height="21" viewBox="0 0 24 21" fill="none" xmlns="http://www.w3.org/2000/svg">
<g clip-path="url(#clip0_2_4122)">
<g clip-path="url(#clip1_2_4122)">
<g clip-path="url(#clip2_2_4122)">
<path fill-rule="evenodd" clip-rule="evenodd" d="M10.3471 1.5898C10.3471 2.2367 10.5545 2.66797 11.0383 3.02736L11.5221 3.24299C9.65601 3.24299 7.99724 3.5305 6.54583 4.32116C4.61061 5.25557 4.61061 4.39303 3.43565 4.39303C2.81361 4.39303 2.19157 5.61496 3.22831 6.18998C3.50476 6.33373 4.05768 6.54937 4.40326 6.54937C3.43565 8.49008 2.46804 10.5027 1.50043 12.4434C1.29308 12.4434 1.01662 12.3715 0.878389 12.5153C0.463698 12.8746 1.22396 13.8809 1.43131 14.1684L2.19157 14.7434C3.91945 15.8216 7.09874 15.8935 8.61927 14.3841C9.03396 14.0246 9.58688 13.3777 9.58688 12.6589C9.58688 12.3715 9.03396 12.4434 8.89574 12.4434C8.82662 12.2996 8.61927 11.8683 8.55016 11.7246C7.72078 10.1433 6.68405 8.34632 6.06202 6.765C5.92378 6.47749 5.99291 6.62124 6.54583 6.47749C7.78989 6.18998 9.17219 5.39932 10.3471 5.39932V17.0435C9.51777 17.0435 8.89574 17.7623 8.89574 18.6248H7.16786C6.61494 18.6248 5.92378 19.2717 5.92378 20.1343H11.8677H17.8116C17.8116 19.2717 17.1205 18.6248 16.5675 18.6248H14.8397C14.8397 17.7623 14.2176 17.0435 13.3882 17.0435V5.39932C14.5631 5.39932 15.9455 6.18998 17.1896 6.47749C17.7425 6.62124 17.8116 6.47749 17.6733 6.765C16.9822 8.34632 16.0146 10.1433 15.1852 11.7246C15.1161 11.8683 14.9088 12.2996 14.8397 12.4434C14.7013 12.4434 14.0794 12.3715 14.0794 12.6589C14.0794 13.3777 14.7014 14.0246 15.1161 14.3841C16.5675 15.8935 19.8159 15.8216 21.5438 14.7434L22.304 14.1684C22.5113 13.8809 23.2717 12.8746 22.857 12.5153C22.7188 12.3715 22.4422 12.4434 22.2349 12.4434C21.2673 10.5027 20.2997 8.49008 19.3321 6.54937C19.6777 6.54937 20.2306 6.33373 20.4379 6.18998C21.5438 5.61496 20.8527 4.39303 20.2306 4.39303C19.1248 4.39303 19.1248 5.25557 17.1896 4.32116C15.7381 3.5305 14.0793 3.24299 12.2132 3.24299L12.6279 3.02736C13.1809 2.66797 13.3882 2.2367 13.3882 1.5898C13.3882 -0.350897 10.3471 -0.350897 10.3471 1.5898ZM18.5718 6.83688L17.1896 9.64012L15.8072 12.4434H18.5718H21.2673L19.9541 9.64012L18.5718 6.83688ZM5.16353 6.83688L6.54583 9.64012L7.92813 12.4434H5.16353H2.39892L3.78122 9.64012L5.16353 6.83688Z" fill="#1E293B"/>
</g>
</g>
</g>
<defs>
<clipPath id="clip0_2_4122">
<rect width="23.33" height="20" fill="white" transform="translate(0.202682 0.134277)"/>
</clipPath>
<clipPath id="clip1_2_4122">
<rect width="23.33" height="20" fill="white" transform="translate(0.202682 0.134277)"/>
</clipPath>
<clipPath id="clip2_2_4122">
<rect width="23.3333" height="20" fill="white" transform="translate(0.201015 0.134277)"/>
</clipPath>
</defs>
</svg>
