<svg width="30" height="30" viewBox="0 0 30 30" fill="none" xmlns="http://www.w3.org/2000/svg">
<g clip-path="url(#clip0_2_3982)">
<g clip-path="url(#clip1_2_3982)">
<path d="M29.9996 15.2956C29.9996 15.29 29.9993 15.2844 29.9992 15.2788C29.991 14.9028 29.6891 14.6033 29.3086 14.6033H29.1272L26.3267 9.18873C26.2085 8.9601 25.9729 8.81774 25.7127 8.81767L20.9314 8.81667L21.1138 7.37077C21.1658 6.79295 20.9872 6.24736 20.6106 5.83441C20.2348 5.42231 19.7101 5.19531 19.1331 5.19531H4.29347C3.92035 5.19531 3.6034 5.48401 3.56782 5.85621L3.41907 7.04749H11.874C12.4229 7.04749 12.8564 7.49254 12.842 8.04153C12.8276 8.59053 12.3709 9.03558 11.8219 9.03558H9.00175C9.00224 9.037 9.00274 9.03842 9.00324 9.03976H0.721602C0.333358 9.03976 0.0103662 9.35445 0.000212767 9.74269C-0.00994065 10.1309 0.296508 10.4456 0.684752 10.4456H11.6487C12.1577 10.524 12.5379 10.9642 12.5239 11.497C12.5086 12.0822 12.0241 12.5568 11.4399 12.5617H3.88109C3.48894 12.5617 3.16275 12.8795 3.15246 13.2717C3.14216 13.6638 3.45173 13.9817 3.84388 13.9817H11.3137C11.8301 14.0536 12.2179 14.4973 12.2038 15.0354C12.1884 15.6236 11.6991 16.1004 11.1109 16.1004H2.54134V16.1012H1.82129C1.42915 16.1012 1.10296 16.4191 1.09266 16.8112C1.08237 17.2034 1.39187 17.5213 1.78409 17.5213H2.40551L2.16246 20.0645C2.11035 20.6422 2.28899 21.1878 2.66559 21.6007C3.04134 22.0129 3.56612 22.2398 4.14316 22.2398H4.67923C4.9347 23.7007 6.19855 24.8044 7.7445 24.8044C9.29044 24.8044 10.6121 23.7007 10.9439 22.2399H17.6337C18.1746 22.2399 18.6867 22.0331 19.0883 21.6945C19.4555 22.0469 19.9423 22.2399 20.4738 22.2399H20.5839C20.8393 23.7007 22.1031 24.8044 23.6491 24.8044C25.1951 24.8044 26.5167 23.7007 26.8485 22.2399H27.2901C28.4404 22.2399 29.4606 21.3047 29.5643 20.1553L29.9969 15.3621C29.9975 15.3557 29.9972 15.3493 29.9977 15.3428C29.9984 15.3329 29.9997 15.3232 30 15.3133C30.0001 15.3073 29.9996 15.3016 29.9996 15.2956ZM7.7817 23.3843C6.80293 23.3843 6.02744 22.5881 6.05307 21.6093C6.0787 20.6305 6.89587 19.8342 7.87465 19.8342C8.85342 19.8342 9.62885 20.6305 9.60321 21.6093C9.57758 22.5881 8.76048 23.3843 7.7817 23.3843ZM23.6864 23.3843C22.7076 23.3843 21.9322 22.5881 21.9577 21.6093C21.9833 20.6305 22.8005 19.8342 23.7793 19.8342C24.7581 19.8342 25.5336 20.6305 25.5079 21.6093C25.4822 22.5881 24.6651 23.3843 23.6864 23.3843ZM28.1496 20.0645C28.1127 20.4739 27.7361 20.8199 27.3274 20.8199H26.8497C26.5335 19.4386 25.3059 18.4141 23.8164 18.4141C22.327 18.4141 21.0458 19.4386 20.6572 20.8199H20.511C20.3305 20.8199 20.1695 20.7522 20.0574 20.6292C19.9446 20.5055 19.8915 20.3372 19.9079 20.1552L20.8031 10.2367L22.8593 10.2372L22.5334 13.8478C22.4812 14.4255 22.6598 14.9711 23.0363 15.3841C23.4121 15.7963 23.937 16.0234 24.5141 16.0234H28.5143L28.1496 20.0645Z" fill="black"/>
</g>
</g>
<defs>
<clipPath id="clip0_2_3982">
<rect width="30" height="30" fill="white"/>
</clipPath>
<clipPath id="clip1_2_3982">
<rect width="30" height="30" fill="white"/>
</clipPath>
</defs>
</svg>
