<svg width="47" height="28" viewBox="0 0 47 28" fill="none" xmlns="http://www.w3.org/2000/svg">
<g clip-path="url(#clip0_2_4055)">
<path d="M17.3724 0.866532C22.1114 0.866532 26.8503 0.883187 31.5887 0.855428C32.89 0.847656 34.1913 0.840438 35.4927 0.824338C35.6037 0.822673 35.7137 0.838773 35.8241 0.848766C36.3532 0.894845 36.4909 1.31788 36.5969 1.76369C37.7162 6.45101 37.3608 11.4432 35.3723 15.8517C34.842 17.027 34.1947 18.1341 33.4791 19.2011C32.9167 20.0399 32.3038 20.8411 31.6331 21.5994C31.133 22.1651 30.6072 22.7053 30.0493 23.21C28.9994 24.1599 27.8852 25.0265 26.5861 25.6217C25.8971 25.9376 25.1749 26.1352 24.4231 26.2407C23.6737 26.3462 22.9209 26.345 22.1691 26.3284C18.0142 26.2385 13.8593 26.3085 9.70439 26.2895C7.55365 26.2801 5.40236 26.2873 3.25163 26.2895C3.02678 26.2895 2.80527 26.2718 2.59319 26.2023C2.15238 26.0592 1.88534 25.6728 1.86036 25.1604C1.85314 25.0149 1.85536 24.8689 1.85536 24.7234C1.85536 17.268 1.85536 9.81259 1.85536 2.35772C1.85536 2.14454 1.85981 1.93301 1.90144 1.71928C2.00193 1.20796 2.40831 0.903173 2.92407 0.872083C3.10339 0.86098 3.28383 0.865976 3.4637 0.865976C8.09994 0.865976 12.7356 0.865976 17.3718 0.864866L17.3724 0.866532Z" fill="#2F4653"/>
<path d="M36.4563 21.0898C36.7145 21.0199 36.9243 20.8722 37.1213 20.7145C37.9625 20.0428 38.5876 19.1928 39.1211 18.2668C41.0442 14.9268 42.1768 11.1795 42.3988 7.31326C42.4216 6.91963 42.4238 6.52713 42.436 6.13407C42.4377 6.07577 42.4227 6.01359 42.4738 5.9503C42.6264 5.99472 42.7641 6.06967 42.8885 6.17959C44.3769 7.49868 44.629 10.0036 44.4679 11.8551C44.086 16.2382 41.666 20.916 37.7804 23.1789C37.691 23.2312 37.6005 23.2817 37.5089 23.3305C36.9087 23.6509 36.2853 23.9024 35.6435 24.1178C35.5224 24.1583 35.4014 24.1994 35.2815 24.2399C35.8106 24.2105 36.5423 24.1183 37.3712 23.8457C39.5874 23.1173 41.3529 21.4734 42.5787 19.5276C42.8801 19.049 43.1505 18.5538 43.4148 18.0542C43.4309 18.0242 43.447 17.9926 43.488 17.9837C43.5369 17.9847 43.5569 18.0236 43.5736 18.062C44.1893 19.4843 44.0305 20.9427 43.1628 22.228C41.4545 24.7568 37.8448 26.2663 34.8596 26.2785C32.1082 26.2896 29.3573 26.2862 26.6059 26.2857C26.5193 26.2857 26.3877 26.3312 26.3638 26.2091C26.3382 26.0791 26.4787 26.0947 26.5592 26.0581C30.7336 24.1388 33.892 20.7906 35.9505 16.7018C37.7393 13.1486 38.6381 9.127 38.2878 5.14974C38.1757 3.87563 37.9391 2.61206 37.5755 1.38568C37.5539 1.31184 37.5233 1.23967 37.5089 1.16417C37.4589 0.899902 37.5372 0.833282 37.8075 0.85993C38.4832 0.925995 39.0795 1.17638 39.6107 1.59442C40.6162 2.38555 41.002 3.82011 41.234 5.02595C41.6682 7.28439 41.2247 9.78595 40.6966 11.9955C40.01 14.8713 38.8508 17.6817 37.1791 20.1272C37.0009 20.3881 36.7949 20.6296 36.6034 20.8805C36.5518 20.9483 36.5051 21.0194 36.4563 21.0888V21.0898Z" fill="url(#paint0_linear_2_4055)"/>
<path d="M12.6668 11.6065C12.6623 11.2518 12.5524 10.8949 12.2393 10.6955C11.9345 10.5018 11.5292 10.5057 11.2894 10.8004C11.27 10.8243 11.2284 10.8648 11.2405 10.8998C11.2528 10.9348 11.3283 10.9264 11.3599 10.9426C11.4143 10.9698 11.4359 11.0241 11.4343 11.0825C11.4321 11.1502 11.4315 11.7969 11.4287 12.6886C10.6443 12.6842 9.85927 12.6791 9.07481 12.6747C9.05982 12.4799 9.05427 12.2611 9.06814 12.0235C9.08092 11.8042 9.10923 11.586 9.15198 11.3706C9.17085 11.2762 9.1925 11.1824 9.21693 11.0897C9.24358 10.9876 9.31742 10.862 9.30965 10.755C9.30854 10.7405 9.30521 10.7261 9.29632 10.715C9.27523 10.6888 9.23469 10.6933 9.20249 10.7017C9.00263 10.7527 8.80832 10.8593 8.65509 10.9975C8.60791 11.0397 8.48188 11.1596 8.36808 11.3639C8.06606 11.9047 8.04218 12.6708 8.04218 12.6708C8.02664 13.166 8.00721 14.1698 8.53518 15.2119C8.53518 15.2119 8.90492 15.9425 9.43401 16.1224C9.53838 16.1579 9.56669 16.1345 9.57557 16.1224C9.61665 16.0696 9.52839 15.9785 9.50229 15.938C9.45399 15.8636 9.41291 15.7848 9.37738 15.7031C9.3041 15.5349 9.25524 15.3567 9.21915 15.1774C9.10868 14.6311 9.03705 14.0782 9.0526 13.5202H11.4287V15.6171C11.4287 15.756 11.4854 15.8897 11.6136 15.9552C11.6907 15.9946 11.7785 16.0085 11.8645 16.0191C12.015 16.038 12.1688 16.0479 12.3176 16.0191C12.4047 16.0024 12.4919 15.9708 12.5568 15.9102C12.6618 15.8131 12.6634 15.6809 12.6634 15.5483C12.6634 14.4951 12.6735 13.442 12.6718 12.3888C12.6718 12.1273 12.6696 11.8664 12.6668 11.6049V11.6065Z" fill="url(#paint1_linear_2_4055)"/>
<path d="M9.41132 16.3846C8.45253 16.1043 8.07835 15.0883 7.87349 14.2073C7.82908 14.0152 7.78633 13.8259 7.76079 13.6299C7.68417 13.0376 7.6875 12.3863 7.87959 11.8145C7.73303 11.8473 7.66697 11.9733 7.58147 12.0754C7.2689 12.4485 7.24448 12.8843 7.22949 13.3174C7.19396 14.3345 7.56537 15.0578 7.64809 15.2133C7.83463 15.5625 8.03782 15.7923 8.09778 15.8583C8.31097 16.0943 8.52526 16.2581 8.6896 16.3669C8.55913 16.3347 8.37481 16.2742 8.17773 16.1526C7.99507 16.0399 7.86461 15.9144 7.77911 15.8184C7.6553 15.6602 7.56815 15.5208 7.51152 15.422C7.35884 15.1577 7.16897 14.8285 7.07237 14.3872C7.04517 14.2634 7.02685 14.1373 6.97799 14.1324C6.90749 14.1251 6.8281 14.3761 6.81089 14.4299C6.75538 14.6048 6.74149 14.7663 6.74205 14.8519C6.74593 15.185 6.99576 15.8328 7.59258 16.2725C7.59258 16.2725 8.11444 16.6567 9.00715 16.6862C9.0438 16.6872 9.25975 16.6822 9.4202 16.5673C9.49904 16.5107 9.55122 16.4241 9.41132 16.3836V16.3846Z" fill="url(#paint2_linear_2_4055)"/>
<path d="M7.87952 11.8105L7.8782 11.8145L7.88217 11.8132L7.87952 11.8105Z" fill="url(#paint3_linear_2_4055)"/>
<path d="M7.8801 11.8119L7.88295 11.8148L7.89436 11.7988L7.8801 11.8119Z" fill="url(#paint4_linear_2_4055)"/>
<path d="M24.9365 11.4809C24.9403 11.3588 24.9365 11.1779 24.8927 10.9602C24.8882 10.9369 24.8826 10.8814 24.8543 10.817C24.8394 10.782 24.7972 10.6893 24.6989 10.626C24.6462 10.5927 24.5873 10.5727 24.5251 10.5733C24.4818 10.5733 24.4385 10.5765 24.3958 10.5765C24.3358 10.5765 24.2759 10.5783 24.2159 10.5788C24.0993 10.5799 23.9827 10.5771 23.8667 10.5816C23.7623 10.5854 23.6646 10.621 23.5902 10.6993C23.5019 10.7919 23.4314 10.9241 23.3148 11.2072C23.2954 11.2538 23.2799 11.2938 23.2693 11.321C23.2249 11.4171 22.5981 12.7762 22.3611 13.1692C22.3439 13.1987 22.305 13.2614 22.2573 13.2591C22.2089 13.2614 22.1707 13.1987 22.1534 13.1692C21.9169 12.7756 21.2895 11.4171 21.2451 11.321C21.2346 11.2938 21.219 11.2544 21.1996 11.2072C21.083 10.9241 21.0125 10.7919 20.9243 10.6993C20.8504 10.621 20.7527 10.5854 20.6478 10.5816C20.5312 10.5777 20.4146 10.5799 20.2986 10.5788C20.2387 10.5788 20.1787 10.5771 20.1187 10.5765C20.0754 10.5765 20.0321 10.5738 19.9894 10.5733C19.9272 10.5733 19.8689 10.5927 19.8156 10.626C19.7173 10.6893 19.6751 10.782 19.6601 10.817C19.6318 10.8814 19.6262 10.9369 19.6218 10.9602C19.5785 11.1783 19.5741 11.3594 19.578 11.4809C19.5325 12.8794 19.4869 14.2768 19.4409 15.6752C19.4425 15.6986 19.4469 15.7308 19.4597 15.7669C19.5313 15.9718 19.7911 16.0723 19.991 16.075C20.1931 16.0778 20.4346 15.9817 20.5201 15.7963C20.5212 15.7941 20.5367 15.758 20.5451 15.718C20.6045 15.4332 20.6389 13.1398 20.6517 12.1411C21.1991 13.2625 21.6271 14.1008 21.8253 14.4706C21.8653 14.5466 21.9513 14.6993 22.1095 14.7514C22.1551 14.767 22.2056 14.7754 22.2573 14.7759C22.3088 14.7759 22.3594 14.767 22.4049 14.7514C22.5631 14.6993 22.6486 14.5466 22.6891 14.4706C22.8868 14.1008 23.3154 13.2625 23.8628 12.1411C23.8756 13.1404 23.9099 15.4332 23.9694 15.718C23.9777 15.758 23.9933 15.7941 23.9943 15.7963C24.0799 15.9817 24.3214 16.0778 24.5234 16.075C24.7239 16.0723 24.9831 15.9718 25.0548 15.7669C25.0675 15.7308 25.0719 15.6986 25.0736 15.6752C25.0281 14.2768 24.9825 12.8794 24.9365 11.4809Z" fill="url(#paint5_linear_2_4055)"/>
<path d="M18.3499 10.7412C18.2362 10.5973 18.0418 10.5918 17.8547 10.5868C17.6776 10.5818 17.4523 10.5757 17.3112 10.7323C17.2329 10.8194 17.2113 10.9221 17.2046 10.9843C17.2013 12.0164 17.1979 13.0479 17.1947 14.08C17.1963 14.1811 17.1863 14.3715 17.0841 14.5808C16.9765 14.8017 16.8238 14.9272 16.7849 14.9577C16.7849 14.9577 16.5251 15.1631 16.1853 15.1903C16.1514 15.1931 16.1154 15.1942 16.1154 15.1942C16.1065 15.1942 16.0976 15.1942 16.0888 15.1948C16.0799 15.1948 16.071 15.1948 16.0621 15.1942C16.0621 15.1942 16.0266 15.1931 15.9921 15.1903C15.6523 15.1626 15.3925 14.9577 15.3925 14.9577C15.3531 14.9266 15.201 14.8017 15.0933 14.5808C14.9912 14.3715 14.9811 14.1811 14.9829 14.08C14.9795 13.0479 14.9762 12.0164 14.9728 10.9843C14.9662 10.9221 14.9451 10.8194 14.8662 10.7323C14.7253 10.5757 14.4998 10.5818 14.3227 10.5868C14.1362 10.5918 13.9413 10.5973 13.8275 10.7412C13.7381 10.8539 13.7453 10.9932 13.7526 11.0537V14.2937C13.7526 14.5952 13.8392 14.9943 14.1284 15.3736C14.4532 15.7994 14.9145 15.9892 15.0566 16.042C15.3448 16.1491 15.6285 16.1791 15.7151 16.1874C15.8655 16.2024 15.9938 16.2029 16.0888 16.2001C16.1837 16.2029 16.3119 16.2024 16.4623 16.1874C16.5489 16.1785 16.8327 16.1486 17.1208 16.042C17.2629 15.9892 17.7242 15.7994 18.049 15.3736C18.3377 14.9943 18.4249 14.5952 18.4249 14.2937V11.0537C18.4321 10.9932 18.4393 10.8539 18.3499 10.7412Z" fill="url(#paint6_linear_2_4055)"/>
<path d="M31.2062 12.2982C31.0496 11.778 30.7298 11.3194 30.2957 10.993C29.8032 10.6232 29.1926 10.4295 28.5791 10.415C27.9656 10.4295 27.3549 10.6232 26.8625 10.993C26.4278 11.3194 26.1081 11.778 25.952 12.2982C25.5051 13.7916 26.1774 15.697 27.7863 16.1183C28.0461 16.186 28.3132 16.2149 28.5791 16.2078C28.8456 16.2149 29.1126 16.186 29.3719 16.1183C30.9807 15.697 31.6531 13.7916 31.2062 12.2982ZM30.0114 13.9653C29.8433 14.6727 29.3735 15.4327 28.5785 15.441C27.7835 15.4327 27.3139 14.6727 27.1456 13.9653C26.9835 13.2842 27.0135 12.4819 27.3949 11.874C27.6592 11.4527 28.1089 11.2034 28.5779 11.2001C29.0477 11.2034 29.4967 11.4533 29.761 11.874C30.1425 12.4819 30.1724 13.2842 30.0103 13.9653H30.0114Z" fill="url(#paint7_linear_2_4055)"/>
</g>
<defs>
<linearGradient id="paint0_linear_2_4055" x1="24.3474" y1="17.4507" x2="45.012" y2="11.1073" gradientUnits="userSpaceOnUse">
<stop offset="0.33" stop-color="#9C8837"/>
<stop offset="0.56" stop-color="#F7E59E"/>
<stop offset="0.6" stop-color="#F0DE96"/>
<stop offset="0.67" stop-color="#DECB80"/>
<stop offset="0.75" stop-color="#C0AC5D"/>
<stop offset="0.79" stop-color="#B39F4D"/>
</linearGradient>
<linearGradient id="paint1_linear_2_4055" x1="11.5298" y1="13.9616" x2="7.72407" y2="11.0819" gradientUnits="userSpaceOnUse">
<stop offset="0.33" stop-color="#9C8837"/>
<stop offset="0.56" stop-color="#F7E59E"/>
<stop offset="0.6" stop-color="#F0DE96"/>
<stop offset="0.67" stop-color="#DECB80"/>
<stop offset="0.75" stop-color="#C0AC5D"/>
<stop offset="0.79" stop-color="#B39F4D"/>
</linearGradient>
<linearGradient id="paint2_linear_2_4055" x1="10.1081" y1="15.8389" x2="6.30235" y2="12.9593" gradientUnits="userSpaceOnUse">
<stop offset="0.33" stop-color="#9C8837"/>
<stop offset="0.56" stop-color="#F7E59E"/>
<stop offset="0.6" stop-color="#F0DE96"/>
<stop offset="0.67" stop-color="#DECB80"/>
<stop offset="0.75" stop-color="#C0AC5D"/>
<stop offset="0.79" stop-color="#B39F4D"/>
</linearGradient>
<linearGradient id="paint3_linear_2_4055" x1="11.881" y1="14.8411" x2="7.34062" y2="11.4047" gradientUnits="userSpaceOnUse">
<stop offset="0.33" stop-color="#9C8837"/>
<stop offset="0.56" stop-color="#F7E59E"/>
<stop offset="0.6" stop-color="#F0DE96"/>
<stop offset="0.67" stop-color="#DECB80"/>
<stop offset="0.75" stop-color="#C0AC5D"/>
<stop offset="0.79" stop-color="#B39F4D"/>
</linearGradient>
<linearGradient id="paint4_linear_2_4055" x1="11.3309" y1="14.412" x2="7.42281" y2="11.4538" gradientUnits="userSpaceOnUse">
<stop offset="0.33" stop-color="#9C8837"/>
<stop offset="0.56" stop-color="#F7E59E"/>
<stop offset="0.6" stop-color="#F0DE96"/>
<stop offset="0.67" stop-color="#DECB80"/>
<stop offset="0.75" stop-color="#C0AC5D"/>
<stop offset="0.79" stop-color="#B39F4D"/>
</linearGradient>
<linearGradient id="paint5_linear_2_4055" x1="25.6271" y1="15.1346" x2="19.7128" y2="11.9978" gradientUnits="userSpaceOnUse">
<stop offset="0.33" stop-color="#9C8837"/>
<stop offset="0.56" stop-color="#F7E59E"/>
<stop offset="0.6" stop-color="#F0DE96"/>
<stop offset="0.67" stop-color="#DECB80"/>
<stop offset="0.75" stop-color="#C0AC5D"/>
<stop offset="0.79" stop-color="#B39F4D"/>
</linearGradient>
<linearGradient id="paint6_linear_2_4055" x1="19.0006" y1="14.8455" x2="13.0864" y2="11.1426" gradientUnits="userSpaceOnUse">
<stop offset="0.33" stop-color="#9C8837"/>
<stop offset="0.56" stop-color="#F7E59E"/>
<stop offset="0.6" stop-color="#F0DE96"/>
<stop offset="0.67" stop-color="#DECB80"/>
<stop offset="0.75" stop-color="#C0AC5D"/>
<stop offset="0.79" stop-color="#B39F4D"/>
</linearGradient>
<linearGradient id="paint7_linear_2_4055" x1="32.7506" y1="15.7486" x2="25.3969" y2="11.4804" gradientUnits="userSpaceOnUse">
<stop offset="0.33" stop-color="#9C8837"/>
<stop offset="0.56" stop-color="#F7E59E"/>
<stop offset="0.6" stop-color="#F0DE96"/>
<stop offset="0.67" stop-color="#DECB80"/>
<stop offset="0.75" stop-color="#C0AC5D"/>
<stop offset="0.79" stop-color="#B39F4D"/>
</linearGradient>
<clipPath id="clip0_2_4055">
<rect width="46" height="28" fill="white" transform="translate(0.169983)"/>
</clipPath>
</defs>
</svg>
