<svg width="21" height="21" viewBox="0 0 21 21" fill="none" xmlns="http://www.w3.org/2000/svg">
<g clip-path="url(#clip0_2_4157)">
<path d="M19.5451 3.53184C19.0715 2.96287 18.3696 2.63427 17.6293 2.63427C17.6283 2.63427 17.6272 2.63427 17.6262 2.63427H4.15261L4.11711 2.34219C3.96904 1.08458 2.90211 0.135292 1.63537 0.134277H1.44977C0.989329 0.134277 0.616104 0.507502 0.616104 0.967948C0.616104 1.42839 0.989329 1.80162 1.44977 1.80162H1.63436C2.05728 1.80162 2.41225 2.11805 2.46194 2.53793L3.609 12.2874C3.85545 14.3858 5.63435 15.9679 7.74693 15.9679H16.4498C16.9102 15.9679 17.2834 15.5947 17.2834 15.1343C17.2834 14.6738 16.9102 14.3006 16.4498 14.3006H7.74693C6.69013 14.2975 5.74896 13.6302 5.39703 12.6343H15.3301C17.3463 12.6343 19.0735 11.1911 19.4305 9.20729L20.0846 5.57849C20.111 5.43143 20.1252 5.28234 20.1252 5.13326C20.1252 4.54807 19.9193 3.98113 19.5431 3.53184H19.5451ZM18.4508 5.28234L17.7956 8.91114C17.5816 10.1018 16.5451 10.9679 15.3352 10.9679C15.3341 10.9679 15.3331 10.9679 15.3311 10.9679H5.13233L4.34835 4.30162H17.6252C17.6272 4.30162 17.6283 4.30162 17.6303 4.30162C18.0907 4.30162 18.464 4.67484 18.464 5.13529C18.464 5.18498 18.4589 5.23468 18.4508 5.28336V5.28234Z" fill="#212529"/>
<path d="M6.4518 20.1333C7.37209 20.1333 8.11813 19.3872 8.11813 18.4669C8.11813 17.5466 7.37209 16.8006 6.4518 16.8006C5.53152 16.8006 4.78548 17.5466 4.78548 18.4669C4.78548 19.3872 5.53152 20.1333 6.4518 20.1333Z" fill="#212529"/>
<path d="M14.7844 20.1333C15.7047 20.1333 16.4508 19.3872 16.4508 18.4669C16.4508 17.5466 15.7047 16.8006 14.7844 16.8006C13.8642 16.8006 13.1181 17.5466 13.1181 18.4669C13.1181 19.3872 13.8642 20.1333 14.7844 20.1333Z" fill="#212529"/>
</g>
<defs>
<clipPath id="clip0_2_4157">
<rect width="19.5091" height="20" fill="white" transform="translate(0.618134 0.134277)"/>
</clipPath>
</defs>
</svg>
