<svg width="94" height="95" viewBox="0 0 94 95" fill="none" xmlns="http://www.w3.org/2000/svg">
<g clip-path="url(#clip0_2_4720)">
<g clip-path="url(#clip1_2_4720)">
<g clip-path="url(#clip2_2_4720)">
<path d="M2.0196 40.9133C1.29308 19.9968 20.8497 2.34443 45.691 1.47333C70.5324 0.602226 91.2634 16.8828 91.98 37.7693C92.6567 57.0337 76.1058 73.5246 54.071 76.6886C52.3293 88.1231 57.7037 93.4399 57.7037 93.4399C54.0087 91.9515 50.653 89.7231 47.8403 86.89C45.0277 84.0568 42.8167 80.6781 41.3418 76.959C19.7051 74.9565 2.67647 59.8473 2.0196 40.9133Z" fill="white" stroke="#CBD5E1" stroke-width="1.14453" stroke-linecap="round" stroke-linejoin="round"/>
<path d="M35.5993 25.5432C41.7997 23.7609 45.4622 27.6458 47.0944 30.139C48.8261 27.7159 52.6479 23.9712 58.7687 25.9937C65.4169 28.1965 67.5766 36.8075 61.7544 44.5272C57.5943 50.0743 50.9958 53.799 47.6219 55.4411C47.2238 55.6413 46.8555 55.8015 46.557 55.9417L45.502 55.401C42.1978 53.6288 35.7486 49.6537 31.8174 43.9465C26.3734 36.0164 28.8714 27.4856 35.5993 25.5432Z" fill="#008DFF"/>
</g>
</g>
</g>
<defs>
<clipPath id="clip0_2_4720">
<rect width="93" height="94" fill="white" transform="translate(0.5 0.439941)"/>
</clipPath>
<clipPath id="clip1_2_4720">
<rect width="93" height="94" fill="white" transform="translate(0.5 0.439941)"/>
</clipPath>
<clipPath id="clip2_2_4720">
<rect width="93" height="94" fill="white" transform="translate(0.5 0.439941)"/>
</clipPath>
</defs>
</svg>
