<svg width="23" height="36" viewBox="0 0 23 36" fill="none" xmlns="http://www.w3.org/2000/svg">
<path d="M5.75055 22.8145C5.75055 22.8145 5.90712 22.971 6.22028 23.2842C6.53343 23.5973 6.69 24.2025 6.69 25.0996C6.69 25.9967 6.37685 26.7669 5.75055 27.4102C5.12425 28.0534 4.36253 28.375 3.46539 28.375C2.56826 28.375 1.79808 28.0534 1.15485 27.4102C0.511617 26.7669 0.190002 25.9967 0.190002 25.0996C0.190002 24.2025 0.511617 23.4408 1.15485 22.8145C1.79808 22.1882 2.56826 21.875 3.46539 21.875C4.36253 21.875 5.12425 22.1882 5.75055 22.8145ZM15.6275 27.5117C15.6275 27.7487 15.5513 27.9518 15.399 28.1211C15.2466 28.2904 15.052 28.375 14.815 28.375H12.3775C12.1405 28.375 11.9459 28.2988 11.7935 28.1465C11.6412 27.9941 11.565 27.8164 11.565 27.6133C11.3619 24.7695 10.2532 22.3405 8.23883 20.3262C6.22451 18.3118 3.79547 17.2031 0.951721 17C0.748596 17 0.570862 16.9238 0.418518 16.7715C0.266174 16.6191 0.190002 16.4245 0.190002 16.1875V13.75C0.190002 13.513 0.274638 13.3184 0.443909 13.166C0.61318 13.0137 0.816305 12.9375 1.05328 12.9375C4.98037 13.1745 8.33193 14.681 11.108 17.457C13.884 20.2331 15.3905 23.5846 15.6275 27.5117ZM22.94 27.5117C22.94 27.7487 22.8638 27.9518 22.7115 28.1211C22.5591 28.2904 22.3645 28.375 22.1275 28.375H19.69C19.453 28.375 19.2584 28.2988 19.106 28.1465C18.9537 27.9941 18.8775 27.8164 18.8775 27.6133C18.6744 22.7383 16.8547 18.5827 13.4185 15.1465C9.98232 11.7103 5.82672 9.89062 0.951721 9.6875C0.748596 9.6875 0.570862 9.61133 0.418518 9.45898C0.266174 9.30664 0.190002 9.11198 0.190002 8.875V6.4375C0.190002 6.20052 0.274638 6.00586 0.443909 5.85352C0.61318 5.70117 0.816305 5.625 1.05328 5.625C3.96474 5.72656 6.74925 6.37826 9.4068 7.58008C12.0644 8.7819 14.3664 10.3477 16.313 12.2773C18.2597 14.207 19.8254 16.5007 21.0103 19.1582C22.1952 21.8158 22.8384 24.6003 22.94 27.5117Z" fill="#64748B"/>
</svg>
