<svg width="24" height="24" viewBox="0 0 24 24" fill="none" xmlns="http://www.w3.org/2000/svg">
<g clip-path="url(#clip0_2_3959)">
<g clip-path="url(#clip1_2_3959)">
<path d="M22.5478 10.0391H17.7933C17.5521 10.0391 17.3571 10.2341 17.3571 10.4753C17.3571 10.7165 17.5521 10.9115 17.7933 10.9115H21.7639L23.0285 22.6897H0.989367L2.47385 10.9115H6.45139C6.69262 10.9115 6.88762 10.7165 6.88762 10.4753C6.88762 10.2341 6.69262 10.0391 6.45139 10.0391H1.70435L0 23.5622H24L22.5478 10.0391Z" fill="black"/>
<path d="M11.6272 16.9989C11.5631 17.0368 11.4946 17.0704 11.4331 17.1101C11.3372 17.1721 11.2434 17.2371 11.1513 17.3042C10.9572 17.4469 10.9153 17.72 11.0575 17.9141C11.143 18.0306 11.2756 18.0921 11.41 18.0921C11.4994 18.0921 11.5897 18.0646 11.6678 18.0079C11.7455 17.9507 11.8244 17.8958 11.9069 17.8425C12.0469 17.7518 12.1957 17.6667 12.3492 17.5891C12.5534 17.4857 12.6362 17.244 12.5507 17.0355C12.5542 17.032 12.5586 17.0294 12.5616 17.0259C13.3508 16.1901 16.01 13.058 17.1111 7.83981C17.3344 6.78152 17.3846 5.76598 17.2603 4.82155C16.8851 1.95334 15.1031 0.437012 12.1071 0.437012C9.11195 0.437012 7.32995 1.95334 6.95392 4.82155C6.83004 5.76642 6.8802 6.78196 7.10355 7.83981C8.19369 13.0074 10.8111 16.1273 11.6272 16.9989ZM7.81897 4.9354C8.13872 2.49601 9.54163 1.30991 12.1075 1.30991C14.6739 1.30991 16.0763 2.49601 16.3957 4.9354C16.5069 5.78169 16.4602 6.69908 16.2578 7.66052C15.268 12.3513 12.908 15.3277 12.1075 16.2307C11.3062 15.3268 8.94662 12.3491 7.95725 7.66052C7.7544 6.69908 7.70816 5.78212 7.81897 4.9354Z" fill="black"/>
<path d="M12.1075 8.69179C13.8747 8.69179 15.3121 7.25442 15.3121 5.48725C15.3121 3.72009 13.8747 2.28271 12.1075 2.28271C10.3404 2.28271 8.90299 3.72009 8.90299 5.48725C8.90299 7.25442 10.3404 8.69179 12.1075 8.69179ZM12.1075 3.15561C13.3931 3.15561 14.4396 4.20169 14.4396 5.48769C14.4396 6.77369 13.3935 7.81977 12.1075 7.81977C10.8215 7.81977 9.77545 6.77369 9.77545 5.48769C9.77545 4.20169 10.822 3.15561 12.1075 3.15561Z" fill="black"/>
<path d="M13.7098 16.2144C13.4742 16.2641 13.3242 16.4962 13.3743 16.7322C13.418 16.9372 13.599 17.0772 13.8005 17.0772C13.8306 17.0772 13.8616 17.0742 13.8921 17.0676C14.1478 17.0135 14.4248 16.9677 14.7149 16.9311C14.9539 16.9019 15.1241 16.6837 15.094 16.4447C15.0643 16.2052 14.8484 16.0324 14.6076 16.0656C14.2922 16.1044 13.9899 16.1546 13.7098 16.2144Z" fill="black"/>
<path d="M15.9655 16.3918C15.9751 16.626 16.1688 16.8093 16.4009 16.8093C16.4074 16.8093 16.4135 16.8093 16.4201 16.8088L17.293 16.7726C17.5333 16.7617 17.7201 16.5576 17.7087 16.3172C17.6978 16.076 17.4736 15.8879 17.2533 15.901L16.3826 15.9372C16.1418 15.9473 15.9551 16.1506 15.9655 16.3918Z" fill="black"/>
<path d="M9.78592 18.3986C9.5617 18.5679 9.33006 18.7306 9.09668 18.8815C8.89471 19.0128 8.83712 19.2829 8.96843 19.4853C9.05175 19.614 9.19221 19.6838 9.33486 19.6838C9.41644 19.6838 9.49845 19.6611 9.57217 19.6135C9.82213 19.4512 10.0712 19.2768 10.3116 19.0953C10.5035 18.95 10.5419 18.6765 10.3971 18.4841C10.2518 18.2935 9.97917 18.2534 9.78592 18.3986Z" fill="black"/>
<path d="M19.5082 15.5224C19.3607 15.6258 19.1692 15.7008 18.921 15.7519C18.685 15.8003 18.5332 16.0315 18.582 16.2675C18.6248 16.4738 18.8063 16.6156 19.0091 16.6156C19.0383 16.6156 19.068 16.6126 19.0977 16.6065C19.465 16.5306 19.7633 16.4093 20.012 16.2344L20.0705 16.1916C20.2624 16.0459 20.3003 15.7724 20.1551 15.5804C20.0094 15.3885 19.7363 15.351 19.5439 15.4958L19.5082 15.5224Z" fill="black"/>
<path d="M3.86499 18.9332C3.92824 18.7007 3.79039 18.4612 3.55788 18.3984C3.32712 18.3334 3.08588 18.4721 3.02307 18.7055C2.9681 18.9079 2.93538 19.1146 2.92491 19.3184C2.92273 19.3685 2.92142 19.4191 2.92142 19.4723C2.92186 19.5578 2.92579 19.6433 2.93408 19.7284C2.9572 19.9531 3.14652 20.1201 3.36769 20.1201C3.38208 20.1201 3.39691 20.1193 3.41262 20.118C3.65211 20.0931 3.8266 19.8793 3.80261 19.6394C3.7965 19.5823 3.79432 19.5243 3.79388 19.4693C3.79388 19.4331 3.79519 19.3969 3.79694 19.3611C3.80392 19.2198 3.8266 19.0754 3.86499 18.9332Z" fill="black"/>
<path d="M19.4986 12.1315C19.1522 12.0853 18.7988 12.1137 18.4577 12.2105C18.2256 12.2755 18.0908 12.5167 18.1567 12.7484C18.2108 12.9408 18.3857 13.0664 18.5759 13.0664C18.6156 13.0664 18.6553 13.0612 18.6946 13.0498C18.9214 12.9861 19.1548 12.9661 19.3816 12.9966C19.6268 13.0271 19.8406 12.8609 19.8724 12.6227C19.9047 12.3833 19.7372 12.1638 19.4986 12.1315Z" fill="black"/>
<path d="M20.3666 14.2925C20.2955 14.5224 20.4247 14.7671 20.6546 14.8378C20.6977 14.8513 20.7405 14.8574 20.7832 14.8574C20.97 14.8574 21.1423 14.7374 21.1998 14.5499C21.243 14.4111 21.2696 14.2702 21.2797 14.1298C21.2819 14.0936 21.2832 14.0569 21.2832 14.0207C21.2832 13.8166 21.2457 13.612 21.1719 13.4135C21.0882 13.1871 20.8356 13.0728 20.6114 13.1561C20.385 13.2399 20.2702 13.4911 20.354 13.7167C20.3915 13.8179 20.4107 13.9204 20.4107 14.0203L20.4094 14.0713C20.4042 14.1437 20.3902 14.2162 20.3666 14.2925Z" fill="black"/>
<path d="M7.62572 19.7018C7.37009 19.8218 7.10966 19.933 6.85185 20.0329C6.62719 20.1193 6.51551 20.3718 6.60232 20.5969C6.66907 20.7697 6.83396 20.8761 7.00932 20.8761C7.06167 20.8761 7.11489 20.867 7.16637 20.8469C7.44337 20.74 7.72256 20.6205 7.99651 20.4922C8.21462 20.3902 8.30841 20.1302 8.2059 19.9121C8.10426 19.6935 7.84514 19.5988 7.62572 19.7018Z" fill="black"/>
<path d="M4.44997 17.8857C4.5202 17.8857 4.59174 17.8687 4.65849 17.8325C4.78412 17.764 4.91804 17.7212 5.05589 17.7064C5.11478 17.6994 5.17498 17.6994 5.233 17.7073C5.4786 17.7391 5.69104 17.5707 5.72245 17.3321C5.75386 17.0931 5.58591 16.8741 5.34729 16.8427C5.2173 16.8257 5.08512 16.8248 4.95861 16.8392C4.70822 16.8667 4.46655 16.9435 4.24058 17.0665C4.02901 17.1821 3.95092 17.4464 4.06652 17.658C4.14592 17.8037 4.29554 17.8857 4.44997 17.8857Z" fill="black"/>
<path d="M4.35923 21.3061C4.45346 21.3306 4.54943 21.3489 4.64453 21.3602C4.7562 21.3737 4.86788 21.3807 4.97999 21.3807C5.11653 21.3807 5.2535 21.3711 5.39004 21.3537C5.6291 21.3236 5.79879 21.1055 5.76825 20.8664C5.73772 20.6274 5.52091 20.459 5.28099 20.4882C5.10475 20.5109 4.92677 20.5161 4.75053 20.4947C4.69295 20.4873 4.63537 20.4764 4.57866 20.462C4.34528 20.3996 4.10753 20.541 4.04646 20.7744C3.9867 21.0077 4.12629 21.2459 4.35923 21.3061Z" fill="black"/>
</g>
</g>
<defs>
<clipPath id="clip0_2_3959">
<rect width="24" height="24" fill="white"/>
</clipPath>
<clipPath id="clip1_2_3959">
<rect width="24" height="24" fill="white"/>
</clipPath>
</defs>
</svg>
