<svg width="26" height="26" viewBox="0 0 26 26" fill="none" xmlns="http://www.w3.org/2000/svg">
<mask id="mask0_2_279" style="mask-type:luminance" maskUnits="userSpaceOnUse" x="0" y="0" width="26" height="26">
<path d="M25.6727 0.434326H0.672729V25.4343H25.6727V0.434326Z" fill="white"/>
</mask>
<g mask="url(#mask0_2_279)">
<path d="M23.0555 3.57407C20.2333 1.20102 15.8729 1.55747 13.1727 4.30649C10.4725 1.55747 6.11219 1.19614 3.28992 3.57407C-0.381951 6.66489 0.155156 11.7039 2.77235 14.3748L11.3368 23.1004C11.8251 23.5985 12.4793 23.8768 13.1727 23.8768C13.871 23.8768 14.5204 23.6033 15.0086 23.1053L23.5731 14.3797C26.1854 11.7088 26.7323 6.66978 23.0555 3.57407ZM21.9032 12.7293L13.3387 21.4549C13.2215 21.5721 13.1239 21.5721 13.0067 21.4549L4.44227 12.7293C2.66004 10.9129 2.29871 7.47544 4.79871 5.37095C6.69813 3.77427 9.62782 4.01352 11.4637 5.88364L13.1727 7.62681L14.8817 5.88364C16.7274 4.00376 19.6571 3.77427 21.5467 5.36606C24.0419 7.47056 23.6708 10.9276 21.9032 12.7293Z" fill="#C2C6D1"/>
</g>
</svg>
