<svg width="69" height="20" viewBox="0 0 69 20" fill="none" xmlns="http://www.w3.org/2000/svg">
<g clip-path="url(#clip0_2_4043)">
<mask id="mask0_2_4043" style="mask-type:luminance" maskUnits="userSpaceOnUse" x="0" y="0" width="69" height="20">
<path d="M68.5 0H0.5V20H68.5V0Z" fill="white"/>
</mask>
<g mask="url(#mask0_2_4043)">
<path d="M20.0844 12.4996C20.0844 12.4996 19.539 13.652 17.6129 13.652C17.1515 13.6714 16.697 13.5424 16.309 13.2861C15.9629 13.0157 15.7794 12.5845 15.8144 12.1444C15.7689 11.5488 16.0975 10.992 16.6324 10.7357C17.4102 10.4353 18.2421 10.2904 19.0793 10.3204C19.5652 10.2444 20.0214 10.5855 20.0948 11.0822C20.1053 11.1281 20.1053 11.1723 20.1053 11.2218L20.0844 12.4996ZM22.9578 6.07155C22.8529 5.82058 22.7096 5.58551 22.5313 5.37519C22.3531 5.18431 22.1503 5.01464 21.9266 4.87855C21.6889 4.71241 21.4319 4.57279 21.168 4.45791C20.8954 4.35186 20.614 4.26703 20.3308 4.20163C20.004 4.12563 19.6771 4.08145 19.3398 4.05671C18.9885 4.02136 18.5865 4.00192 18.146 4.00192C15.1974 4.00192 13.5229 4.94394 13.1122 6.8227C13.0475 7.08781 13.2066 7.35823 13.474 7.42892C13.4985 7.43422 13.5229 7.43953 13.5492 7.43953H15.3617C15.8563 7.43953 15.8563 7.2893 16.0451 6.85805C16.129 6.62298 16.2723 6.41796 16.4716 6.26773C16.933 5.96727 17.4818 5.82235 18.0324 5.86123C18.548 5.81174 19.0636 5.93723 19.4883 6.22708C19.8204 6.53815 20.0127 6.96409 20.0284 7.42008C20.0284 8.03691 19.8397 8.44695 19.0828 8.44695C17.2738 8.38156 15.3372 8.58657 14.2465 9.22284C13.1524 9.89976 12.497 11.1122 12.5372 12.4095C12.5214 12.9061 12.621 13.401 12.829 13.8517C13.0178 14.2423 13.2992 14.5834 13.6418 14.8485C14.0036 15.149 14.4196 15.3699 14.8705 15.5007C15.3757 15.6368 15.8965 15.7057 16.4209 15.7004C17.1253 15.711 17.8279 15.6103 18.5026 15.3999C19.0968 15.1543 19.6614 14.8344 20.177 14.4438V14.7937C20.177 15.1401 20.2819 15.4494 20.6716 15.4494H22.7725C23.199 15.4494 23.2969 15.1437 23.2969 14.7637V8.22072C23.2969 7.81422 23.2672 7.40418 23.213 7.00298C23.1658 6.68307 23.0819 6.37201 22.9578 6.07155ZM25.8715 17.3847C25.7072 17.3794 25.5446 17.3653 25.3803 17.3441C25.1776 17.314 24.7913 17.3441 24.7913 17.694V19.1928C24.7913 19.769 25.0692 19.8096 25.2125 19.8485C25.6687 19.9492 26.1389 19.9987 26.6056 19.9987C27.1596 20.0146 27.7102 19.898 28.2101 19.6629C28.6715 19.4279 29.0823 19.1027 29.4144 18.7015C29.7902 18.2649 30.1083 17.7842 30.36 17.2628C30.6379 16.7114 30.8948 16.0998 31.143 15.43L31.4296 14.6329C30.8563 15.2091 28.3237 17.6251 25.8715 17.3847ZM34.4622 4.27763H32.5343C32.1585 4.25289 31.8159 4.50739 31.7268 4.88385L29.4878 11.121C29.4878 11.121 27.511 5.43528 27.3624 4.99873C27.2733 4.57809 26.9115 4.27763 26.4902 4.27233H24.7162C24.0817 4.27233 24.0817 4.77251 24.1656 4.96869C24.2495 5.16487 26.6772 11.8881 27.6281 14.4632C27.7766 14.7831 27.8815 15.1189 27.9409 15.4653C27.8763 15.8064 27.7469 16.1316 27.5651 16.4215C27.49 16.547 27.4061 16.6619 27.317 16.7714C29.1452 16.22 31.2706 14.2158 32.335 12.0525C33.4152 9.0567 34.8327 5.05883 34.8974 4.85381C34.969 4.53921 34.969 4.27763 34.4622 4.27763ZM3.75946 12.9644C2.54121 12.5191 1.43133 11.8121 0.504968 10.8948V14.8185C0.464768 15.1242 0.672762 15.4088 0.975139 15.4494C0.985627 15.4494 0.99087 15.4547 0.999609 15.4547H3.23336C3.82763 15.4547 3.75771 14.8132 3.75771 14.8132V12.9644H3.75946ZM8.74432 6.15108C8.57653 6.45154 8.31785 6.69191 8.01023 6.84744C7.67289 7.00828 7.31633 7.10372 6.94579 7.13376C6.54029 7.18325 6.13304 7.20976 5.72754 7.20976H4.30129C3.96396 7.20976 3.75072 6.92875 3.75072 6.51871V3.16593C3.7315 2.89022 3.93949 2.65515 4.21215 2.63571C4.24187 2.63571 4.27158 2.63571 4.30129 2.64101H5.72754C6.18897 2.64101 6.62418 2.65162 7.03143 2.68166C7.39848 2.69757 7.75504 2.78771 8.08713 2.94147C8.38951 3.07756 8.64644 3.30732 8.81074 3.59718C9.00475 3.98778 9.08865 4.42433 9.06418 4.85911C9.07467 5.3098 8.96455 5.75165 8.74782 6.14755V6.15108H8.74432ZM11.6423 1.97823C11.4045 1.58764 11.0917 1.24653 10.7264 0.976112C10.3593 0.719838 9.95383 0.525423 9.52736 0.389332C9.06243 0.2338 8.58527 0.133058 8.10111 0.0835704C7.53132 0.0287808 6.96152 -0.00126518 6.38648 0.00403704H1.44531C0.969896 -0.0419156 0.553908 0.309799 0.508464 0.785232C0.504968 0.795836 0.504968 0.806441 0.504968 0.815278V0.855928V8.97717C1.19362 10.4653 2.32797 11.6884 3.75596 12.4749V10.8471C3.71052 10.3204 4.0933 9.85557 4.61765 9.80432H6.10332C8.12558 9.80432 9.67068 9.37837 10.7316 8.52118C11.7961 7.66399 12.3361 6.39676 12.3571 4.71418C12.3571 4.22814 12.3029 3.74211 12.1893 3.27198C12.074 2.81422 11.8904 2.37943 11.6423 1.97823Z" fill="#323232"/>
<path d="M68.13 8.29237C68.6246 9.0983 68.6246 10.1252 68.13 10.9329C67.6353 11.6946 64.9384 14.6003 64.0522 15.537C63.2797 16.3429 62.2397 17.1648 61.2032 17.1648H39.8044C36.9064 17.1648 36.7334 16.1626 36.7334 13.9375V4.84415C36.7334 2.55889 37.4028 1.89258 39.3849 1.89258H61.2539C62.2799 1.89258 63.1906 2.4228 64.2218 3.49032C65.1167 4.40937 67.7734 7.75154 68.13 8.29237Z" fill="#53BDBD"/>
<path d="M41.5921 5.40636V5.35157C41.5921 5.06171 41.5921 4.77539 41.0974 4.77539H39.3038C38.8825 4.77539 38.8633 5.00515 38.8633 5.36217V7.76054C39.5713 6.76373 40.5083 5.95779 41.5921 5.40636Z" fill="white"/>
<path d="M53.611 14.0845V13.959V8.16718C53.611 5.7476 52.5501 4.53516 50.4352 4.53516C49.8462 4.54046 49.2711 4.71543 48.7747 5.03533C48.2242 5.38174 47.74 5.81123 47.3275 6.31317C47.1388 5.77234 46.777 5.30575 46.2963 4.99998C45.751 4.69422 45.1322 4.5493 44.5135 4.57404C43.5976 4.57934 42.7097 4.8851 41.9861 5.45067C41.8271 5.61151 38.8557 7.94979 38.8557 10.3906V14.0933C38.8557 14.2082 38.7963 14.6589 39.2962 14.6589H41.1594C41.7397 14.6589 41.6837 14.2736 41.6837 14.1127V8.11769C41.9966 7.69175 42.6346 6.67902 43.685 6.67902C44.0276 6.64898 44.3632 6.80451 44.5572 7.09436C44.7652 7.52031 44.8596 7.99574 44.8246 8.47294V13.1477V14.1039C44.8246 14.2188 44.7652 14.6695 45.2598 14.6695H47.1073C47.6823 14.6695 47.6282 14.2842 47.6282 14.1233V13.9926V8.09648C47.9655 7.67054 48.6192 6.65781 49.6294 6.65781C49.9755 6.62777 50.3129 6.7886 50.5156 7.07315C50.7288 7.4991 50.8232 7.97453 50.7883 8.45173V13.1265V14.0827C50.7883 14.1976 50.7288 14.6483 51.2287 14.6483H53.0919C53.681 14.62 53.611 14.2382 53.611 14.0845Z" fill="white"/>
<path d="M59.577 6.50347C58.4426 6.50347 57.6788 7.30058 57.511 8.60847H61.5643C61.4594 7.45965 60.8459 6.50347 59.577 6.50347ZM63.8872 11.7332C63.2387 13.4971 61.5293 14.6336 59.6661 14.5346C56.8171 14.5346 54.9189 12.5763 54.9189 9.63532C54.9189 6.69965 56.8958 4.64062 59.5665 4.64062C62.2372 4.64062 64.0165 6.50878 64.1301 9.52574C64.1301 9.90573 64.0357 10.2468 63.5551 10.2468H57.5162C57.5564 11.8605 58.3185 12.746 59.6871 12.746C60.4247 12.7654 61.1098 12.3448 61.4367 11.6784C61.566 11.4876 61.7793 11.378 62.0065 11.3833H63.5621C63.7351 11.3727 63.8784 11.5088 63.8889 11.6837C63.8889 11.7032 63.8889 11.7297 63.8837 11.7544L63.8872 11.7332Z" fill="white"/>
</g>
</g>
<defs>
<clipPath id="clip0_2_4043">
<rect width="68" height="20" fill="white" transform="translate(0.5)"/>
</clipPath>
</defs>
</svg>
