<svg width="26" height="21" viewBox="0 0 26 21" fill="none" xmlns="http://www.w3.org/2000/svg">
<g clip-path="url(#clip0_2_4138)">
<g clip-path="url(#clip1_2_4138)">
<path fill-rule="evenodd" clip-rule="evenodd" d="M2.64976 6.76189L2.83372 7.12981C2.86 7.18237 2.89436 7.23088 2.92266 7.28344C3.16424 7.73323 3.43209 8.17595 3.70499 8.60653C3.98093 9.04217 4.27001 9.47882 4.5783 9.89121C4.71677 10.0762 4.82492 10.246 5.02202 10.3764C5.20295 10.4967 5.4334 10.5765 5.65173 10.5765C6.26324 10.5765 6.48359 10.343 6.82624 9.8801C6.90407 9.77498 6.97482 9.6648 7.05063 9.55766C7.12542 9.45254 7.19517 9.34439 7.27097 9.24028C7.5651 8.83699 7.837 8.38518 8.09576 7.95762L8.48389 7.26424C8.74366 6.8003 8.94884 6.33029 9.11865 5.82491C9.44715 4.84649 9.10349 3.62852 8.45054 2.8573C8.1372 2.48635 7.78545 2.18211 7.35284 1.95671C6.77974 1.65854 6.25313 1.55443 5.60523 1.55443C5.31009 1.55443 5.02303 1.608 4.73901 1.6828C3.83943 1.9183 2.97017 2.61371 2.55778 3.4486C1.93818 4.70094 2.06048 5.5328 2.65077 6.76391L2.64976 6.76189ZM4.72486 5.16185V5.00012C4.72486 4.53012 5.15544 4.0965 5.74371 4.0965C6.20866 4.0965 6.67058 4.53922 6.67058 5.00012C6.67058 5.31447 6.61094 5.58536 6.37544 5.79358C5.65678 6.42834 4.72486 5.8239 4.72486 5.16185ZM19.4234 18.3766C18.7523 18.3766 18.1215 17.8277 18.1215 17.1556C18.1215 16.7786 18.1438 16.8897 18.162 16.6674H20.603C20.8041 17.0868 20.608 17.7267 20.3068 17.9986C20.0935 18.1916 19.7084 18.3756 19.4224 18.3756L19.4234 18.3766ZM8.55869 17.1152L8.64056 16.6674H11.0816C11.124 17.1819 11.22 17.8712 10.3831 18.2482C9.45422 18.6667 8.55869 17.9298 8.55869 17.1152ZM21.7017 14.8773H18.9756V11.4589H23.2886V13.1681C23.2886 13.6644 23.0763 14.0738 22.8317 14.3386C22.5982 14.5923 22.1686 14.8773 21.7017 14.8773ZM5.95496 13.1681V11.9886C6.39363 11.9471 6.82118 11.7975 7.1891 11.5418C7.70156 11.186 8.0058 10.6786 8.37068 10.152C8.82856 9.49095 9.11663 9.01286 9.50982 8.34879C9.55934 8.26489 9.60079 8.19616 9.64324 8.11227L10.0213 7.37845C10.2871 6.80434 10.6772 5.90072 10.6772 5.09312C10.6772 4.32999 10.4377 3.40312 10.088 2.75218H14.499C16.0768 2.75218 17.225 3.90142 17.225 5.47822V14.8773H7.54085C6.72718 14.8773 5.95395 14.0899 5.95395 13.1681H5.95496ZM4.20532 11.5408V13.3319C4.20532 13.725 4.34178 14.2506 4.47621 14.5266C4.96542 15.5343 5.71945 16.2833 6.85049 16.5471C6.78884 17.285 6.74335 17.662 7.10723 18.4463C7.5176 19.3297 8.54959 20.0716 9.57754 20.1293C10.183 20.1636 10.6742 20.0797 11.1361 19.8574C11.4373 19.7128 11.5728 19.6299 11.8043 19.4278C12.0347 19.2266 12.152 19.1326 12.3511 18.8355C12.6685 18.3604 12.9121 17.7095 12.9121 17.0767C12.9121 16.9039 12.8716 16.8857 12.8716 16.6694H16.3709C16.3709 17.2203 16.2617 17.2961 16.5185 18.0683C17.0521 19.6764 18.8655 20.6033 20.6272 19.8665C20.9365 19.7371 21.2701 19.5127 21.5096 19.2843C21.919 18.8941 22.4345 18.0562 22.4345 17.2789C22.4345 16.9241 22.4628 16.8433 22.394 16.5461C23.8556 16.2055 25.0392 14.7752 25.0392 13.3319V8.65202C25.0392 7.87676 24.7542 7.15811 24.4681 6.6598C23.8354 5.55908 22.7357 4.75754 21.4247 4.53517C20.7273 4.41691 19.7216 4.46038 18.8948 4.46038L18.6684 3.75082C18.0306 2.15684 16.479 1.00154 14.6627 1.00154H8.5132C8.31711 0.870141 8.09879 0.745817 7.85216 0.621493C7.25884 0.324328 6.58365 0.161595 5.90139 0.135315H5.49506C4.81279 0.162606 4.13659 0.324328 3.54428 0.621493C3.23297 0.778161 2.71445 1.07634 2.44963 1.33307C2.33743 1.44122 2.23332 1.52208 2.12517 1.63428C2.06452 1.69796 2.05037 1.73434 1.9867 1.79701C1.78151 2.0022 1.6299 2.24377 1.46817 2.48332C1.03051 3.13526 0.718185 4.21274 0.718185 5.0921C0.718185 6.54761 2.02207 8.64696 2.7104 9.67895C2.94793 10.0358 3.3674 10.6614 3.62312 10.9899C3.799 11.2153 3.97891 11.3882 4.20633 11.5408H4.20532ZM18.9756 6.25145H20.888C21.2347 6.25145 21.6087 6.38588 21.8523 6.50819C22.6993 6.93271 23.2886 7.79792 23.2886 8.77432V9.66986H18.9756V6.25145ZM5.72046 7.06208C6.23595 7.06208 6.75548 6.82557 7.09308 6.48898C7.66113 5.92396 7.83397 5.07896 7.53074 4.32493C7.44179 4.10459 7.30736 3.88626 7.15069 3.73162C6.67765 3.26464 6.29862 3.1009 5.60422 3.1009C5.19082 3.1009 4.82694 3.26363 4.52473 3.48095C4.40444 3.56787 4.35593 3.62043 4.25384 3.7205C4.09212 3.8802 3.9587 4.09044 3.86874 4.30876C3.78181 4.52203 3.68175 4.90916 3.70601 5.13557C3.74138 5.46002 3.78788 5.6551 3.89805 5.9179C4.06685 6.32221 4.48935 6.72146 4.89467 6.89025C5.13826 6.99133 5.38388 7.06208 5.71945 7.06208H5.72046Z" fill="#212529"/>
</g>
</g>
<defs>
<clipPath id="clip0_2_4138">
<rect width="24.31" height="20" fill="white" transform="translate(0.722687 0.134277)"/>
</clipPath>
<clipPath id="clip1_2_4138">
<rect width="24.3221" height="20" fill="white" transform="translate(0.716644 0.134277)"/>
</clipPath>
</defs>
</svg>
