<svg width="16" height="21" viewBox="0 0 16 21" fill="none" xmlns="http://www.w3.org/2000/svg">
<g clip-path="url(#clip0_2_4146)">
<path d="M7.87329 10.1343C10.6344 10.1343 12.8733 7.89538 12.8733 5.13428C12.8733 2.37318 10.6344 0.134277 7.87329 0.134277C5.11219 0.134277 2.87329 2.37318 2.87329 5.13428C2.87577 7.89414 5.11343 10.1318 7.87329 10.1343ZM7.87329 1.80136C9.71403 1.80136 11.2062 3.29354 11.2062 5.13428C11.2062 6.97501 9.71403 8.4672 7.87329 8.4672C6.03256 8.4672 4.54037 6.97501 4.54037 5.13428C4.54037 3.29354 6.03256 1.80136 7.87329 1.80136Z" fill="#212529"/>
<path d="M7.8733 11.8013C3.73413 11.8051 0.376402 15.1615 0.372681 19.302C0.372681 19.7621 0.746037 20.1355 1.20622 20.1355C1.6664 20.1355 2.03976 19.7621 2.03976 19.302C2.03976 16.0807 4.65202 13.4684 7.8733 13.4684C11.0946 13.4684 13.7068 16.0807 13.7068 19.302C13.7068 19.7621 14.0802 20.1355 14.5404 20.1355C15.0006 20.1355 15.3739 19.7621 15.3739 19.302C15.3702 15.1628 12.0137 11.8051 7.8733 11.8013Z" fill="#212529"/>
</g>
<defs>
<clipPath id="clip0_2_4146">
<rect width="15.0001" height="20" fill="white" transform="translate(0.37265 0.134277)"/>
</clipPath>
</defs>
</svg>
