<svg width="28" height="21" viewBox="0 0 28 21" fill="none" xmlns="http://www.w3.org/2000/svg">
<g clip-path="url(#clip0_2_4129)">
<g clip-path="url(#clip1_2_4129)">
<path d="M6.66144 15.6891C7.58179 15.6891 8.32788 14.943 8.32788 14.0226C8.32788 13.1023 7.58179 12.3562 6.66144 12.3562C5.74109 12.3562 4.995 13.1023 4.995 14.0226C4.995 14.943 5.74109 15.6891 6.66144 15.6891Z" fill="#212529"/>
<path d="M21.6608 0.134277H6.10596C3.03922 0.137007 0.553896 2.6237 0.551167 5.68907V14.5781C0.553896 17.6449 3.03922 20.1302 6.10596 20.1343H21.6608C24.7275 20.1302 27.2128 17.6449 27.2156 14.5795V5.69044C27.2128 2.6237 24.7275 0.138372 21.6608 0.135642V0.134277ZM6.10596 2.3562H21.6608C23.5019 2.3562 24.9936 3.8493 24.9936 5.68907H2.77172C2.77172 3.84794 4.26483 2.3562 6.1046 2.3562H6.10596ZM21.6608 17.911H6.10596C4.26483 17.911 2.77309 16.4179 2.77309 14.5781V7.91099H24.995V14.5781C24.995 16.4193 23.5019 17.911 21.6621 17.911H21.6608Z" fill="#212529"/>
</g>
</g>
<defs>
<clipPath id="clip0_2_4129">
<rect width="26.66" height="20" fill="white" transform="translate(0.552681 0.134277)"/>
</clipPath>
<clipPath id="clip1_2_4129">
<rect width="26.6665" height="20" fill="white" transform="translate(0.549412 0.134277)"/>
</clipPath>
</defs>
</svg>
