<svg width="49" height="33" viewBox="0 0 49 33" fill="none" xmlns="http://www.w3.org/2000/svg">
<g clip-path="url(#clip0_2_4698)">
<g clip-path="url(#clip1_2_4698)">
<g clip-path="url(#clip2_2_4698)">
<path d="M45.0999 1.30005H9.48489C7.77589 1.30005 6.38989 2.73105 6.38989 4.50005V23.7001C6.38989 25.4661 7.77689 26.9 9.48689 26.9H45.0999C46.8099 26.9 48.1969 25.4661 48.1969 23.7001V4.50005C48.1969 2.73205 46.8099 1.30005 45.0999 1.30005Z" fill="#DFF1FF"/>
<path d="M1.7439 10.9H43.5509V15.7H1.7439V10.9Z" fill="#006BFF"/>
<path d="M43.5499 9.29998V10.9H1.74491V9.29998C1.74491 8.45098 2.07091 7.63698 2.65191 7.03698C2.93538 6.74181 3.27537 6.50674 3.65162 6.34576C4.02787 6.18478 4.43267 6.10119 4.84191 6.09998H40.4549C41.2759 6.09998 42.0639 6.43698 42.6449 7.03698C43.2249 7.63698 43.5519 8.45098 43.5519 9.29998H43.5499ZM1.74391 15.7H43.5509V28.5C43.5509 29.349 43.2239 30.163 42.6439 30.763C42.0629 31.363 41.2749 31.7 40.4539 31.7H4.83991C4.43066 31.6989 4.02582 31.6153 3.64955 31.4543C3.27329 31.2934 2.93331 31.0582 2.64991 30.763C2.06619 30.1545 1.74139 29.3432 1.74391 28.5V15.7Z" fill="#DFF1FF"/>
<path d="M4.84092 18.9H20.3249V22.1H4.83992V18.9H4.84092ZM4.84092 29.3H11.8089C11.9111 29.2997 12.0122 29.2788 12.1062 29.2386C12.2002 29.1984 12.2851 29.1397 12.3559 29.066C12.5021 28.9139 12.5835 28.711 12.5829 28.5C12.5835 28.2891 12.5021 28.0861 12.3559 27.934C12.2851 27.8603 12.2002 27.8016 12.1062 27.7614C12.0123 27.7212 11.9111 27.7003 11.8089 27.7H4.83992C4.7377 27.7003 4.63659 27.7212 4.54261 27.7614C4.44863 27.8016 4.36371 27.8603 4.29292 27.934C4.14677 28.0861 4.06539 28.2891 4.06592 28.5C4.06592 28.712 4.14692 28.916 4.29292 29.066C4.36367 29.1398 4.44858 29.1986 4.54257 29.2388C4.63656 29.279 4.73769 29.2998 4.83992 29.3H4.84092ZM14.9049 27.7H14.1309C14.0287 27.7003 13.9276 27.7212 13.8336 27.7614C13.7396 27.8016 13.6547 27.8603 13.5839 27.934C13.4378 28.0861 13.3564 28.2891 13.3569 28.5C13.3569 28.712 13.4389 28.916 13.5839 29.066C13.6547 29.1398 13.7396 29.1986 13.8336 29.2388C13.9276 29.279 14.0287 29.2998 14.1309 29.3H14.9049C15.0073 29.2998 15.1086 29.279 15.2027 29.2388C15.2969 29.1986 15.382 29.1398 15.4529 29.066C15.5991 28.9139 15.6805 28.711 15.6799 28.5C15.6805 28.2891 15.5991 28.0861 15.4529 27.934C15.382 27.8602 15.2969 27.8014 15.2028 27.7612C15.1086 27.721 15.0073 27.7002 14.9049 27.7Z" fill="#006BFF"/>
<path d="M4.84092 22.9H20.3249C20.4271 22.8997 20.5283 22.8788 20.6222 22.8386C20.7162 22.7984 20.8011 22.7397 20.8719 22.666C21.0181 22.5139 21.0995 22.3109 21.0989 22.1V18.9C21.0995 18.689 21.0181 18.4861 20.8719 18.334C20.8011 18.2603 20.7162 18.2016 20.6222 18.1614C20.5282 18.1212 20.4271 18.1003 20.3249 18.1H4.83992C4.73771 18.1003 4.63661 18.1212 4.54264 18.1614C4.44867 18.2016 4.36374 18.2603 4.29292 18.334C4.14677 18.4861 4.06539 18.689 4.06592 18.9V22.1C4.06592 22.312 4.14692 22.516 4.29292 22.666C4.36367 22.7398 4.44858 22.7985 4.54257 22.8387C4.63656 22.8789 4.73769 22.8998 4.83992 22.9H4.84092ZM5.61492 19.7H19.5509V21.3H5.61492V19.7Z" fill="#006BFF"/>
<path d="M45.099 0.5H9.48598C8.97457 0.502049 8.46881 0.606953 7.99878 0.808468C7.52874 1.00998 7.10405 1.30399 6.74998 1.673C6.02022 2.43305 5.6134 3.44633 5.61498 4.5V5.3H4.84098C4.32957 5.30205 3.82381 5.40695 3.35378 5.60847C2.88374 5.80998 2.45905 6.10399 2.10498 6.473C1.37522 7.23305 0.968399 8.24633 0.969975 9.3V28.5C0.968399 29.5537 1.37522 30.5669 2.10498 31.327C2.45905 31.696 2.88374 31.99 3.35378 32.1915C3.82381 32.393 4.32957 32.498 4.84098 32.5H40.454C40.9654 32.498 41.4711 32.393 41.9412 32.1915C42.4112 31.99 42.8359 31.696 43.19 31.327C43.9197 30.5669 44.3265 29.5537 44.325 28.5V27.7H45.099C45.6104 27.698 46.1161 27.593 46.5862 27.3915C47.0562 27.19 47.4809 26.896 47.835 26.527C48.5647 25.767 48.9715 24.7537 48.97 23.7V4.5C48.9715 3.44633 48.5647 2.43305 47.835 1.673C47.4809 1.30399 47.0562 1.00998 46.5862 0.808468C46.1161 0.606953 45.6104 0.502049 45.099 0.5ZM2.51898 9.3C2.51898 8.664 2.76398 8.054 3.19898 7.604C3.41146 7.38252 3.66633 7.20606 3.94842 7.08511C4.23051 6.96417 4.53405 6.90121 4.84098 6.9H40.454C41.07 6.9 41.66 7.154 42.095 7.604C42.531 8.054 42.775 8.664 42.776 9.3V10.1H2.51798V9.3H2.51898ZM2.51898 11.7H42.776V14.9H2.51798V11.7H2.51898ZM42.775 28.5C42.775 29.136 42.53 29.746 42.095 30.196C41.8825 30.4175 41.6276 30.5939 41.3455 30.7149C41.0634 30.8358 40.7599 30.8988 40.453 30.9H4.83998C4.53305 30.8988 4.22951 30.8358 3.94742 30.7149C3.66533 30.5939 3.41046 30.4175 3.19798 30.196C2.76128 29.7395 2.5183 29.1317 2.51998 28.5V16.5H42.777V28.5H42.775ZM47.421 23.7C47.4215 24.3321 47.1775 24.9398 46.74 25.396C46.5275 25.6175 46.2726 25.7939 45.9905 25.9149C45.7084 26.0358 45.4049 26.0988 45.098 26.1H44.324V9.3C44.3256 8.24633 43.9187 7.23305 43.189 6.473C42.835 6.10411 42.4105 5.81017 41.9406 5.60866C41.4708 5.40715 40.9652 5.30218 40.454 5.3H7.16398V4.5C7.16398 3.864 7.40898 3.254 7.84398 2.804C8.05658 2.5824 8.31161 2.40586 8.59388 2.28492C8.87615 2.16397 9.17988 2.10108 9.48698 2.1H45.1C45.716 2.1 46.306 2.354 46.742 2.804C47.177 3.254 47.422 3.864 47.422 4.5L47.421 23.7Z" fill="#006BFF"/>
</g>
</g>
</g>
<defs>
<clipPath id="clip0_2_4698">
<rect width="48" height="32" fill="white" transform="translate(0.969971 0.5)"/>
</clipPath>
<clipPath id="clip1_2_4698">
<rect width="48" height="32" fill="white" transform="translate(0.969971 0.5)"/>
</clipPath>
<clipPath id="clip2_2_4698">
<rect width="48" height="32" fill="white" transform="translate(0.969971 0.5)"/>
</clipPath>
</defs>
</svg>
