<svg width="29" height="20" viewBox="0 0 29 20" fill="none" xmlns="http://www.w3.org/2000/svg">
<path d="M27.8189 3.59766C28.4283 5.73047 28.4283 10.3008 28.4283 10.3008C28.4283 10.3008 28.4283 14.8203 27.8189 17.0039C27.5142 18.2227 26.5494 19.1367 25.3814 19.4414C23.1978 20 14.565 20 14.565 20C14.565 20 5.88141 20 3.69781 19.4414C2.52985 19.1367 1.565 18.2227 1.26031 17.0039C0.65094 14.8203 0.65094 10.3008 0.65094 10.3008C0.65094 10.3008 0.65094 5.73047 1.26031 3.59766C1.565 2.37891 2.52985 1.41406 3.69781 1.10938C5.88141 0.5 14.565 0.5 14.565 0.5C14.565 0.5 23.1978 0.5 25.3814 1.10938C26.5494 1.41406 27.5142 2.37891 27.8189 3.59766ZM11.7213 14.4141L18.9322 10.3008L11.7213 6.1875V14.4141Z" fill="#64748B"/>
</svg>
