<svg width="23" height="24" viewBox="0 0 23 24" fill="none" xmlns="http://www.w3.org/2000/svg">
<path d="M11.565 6.41016C14.7642 6.41016 17.4048 9.05078 17.4048 12.25C17.4048 15.5 14.7642 18.0898 11.565 18.0898C8.315 18.0898 5.72516 15.5 5.72516 12.25C5.72516 9.05078 8.315 6.41016 11.565 6.41016ZM11.565 16.0586C13.647 16.0586 15.3228 14.3828 15.3228 12.25C15.3228 10.168 13.647 8.49219 11.565 8.49219C9.43219 8.49219 7.75641 10.168 7.75641 12.25C7.75641 14.3828 9.48297 16.0586 11.565 16.0586ZM18.9791 6.20703C18.9791 6.96875 18.3697 7.57812 17.608 7.57812C16.8463 7.57812 16.2369 6.96875 16.2369 6.20703C16.2369 5.44531 16.8463 4.83594 17.608 4.83594C18.3697 4.83594 18.9791 5.44531 18.9791 6.20703ZM22.8384 7.57812C22.94 9.45703 22.94 15.0938 22.8384 16.9727C22.7369 18.8008 22.3306 20.375 21.0103 21.7461C19.69 23.0664 18.065 23.4727 16.2369 23.5742C14.358 23.6758 8.72125 23.6758 6.84235 23.5742C5.01422 23.4727 3.44 23.0664 2.06891 21.7461C0.748596 20.375 0.342346 18.8008 0.240784 16.9727C0.139221 15.0938 0.139221 9.45703 0.240784 7.57812C0.342346 5.75 0.748596 4.125 2.06891 2.80469C3.44 1.48438 5.01422 1.07812 6.84235 0.976562C8.72125 0.875 14.358 0.875 16.2369 0.976562C18.065 1.07812 19.69 1.48438 21.0103 2.80469C22.3306 4.125 22.7369 5.75 22.8384 7.57812ZM20.4009 18.9531C21.0103 17.4805 20.858 13.9258 20.858 12.25C20.858 10.625 21.0103 7.07031 20.4009 5.54688C19.9947 4.58203 19.233 3.76953 18.2681 3.41406C16.7447 2.80469 13.19 2.95703 11.565 2.95703C9.88922 2.95703 6.33453 2.80469 4.86188 3.41406C3.84625 3.82031 3.08453 4.58203 2.67828 5.54688C2.06891 7.07031 2.22125 10.625 2.22125 12.25C2.22125 13.9258 2.06891 17.4805 2.67828 18.9531C3.08453 19.9688 3.84625 20.7305 4.86188 21.1367C6.33453 21.7461 9.88922 21.5938 11.565 21.5938C13.19 21.5938 16.7447 21.7461 18.2681 21.1367C19.233 20.7305 20.0455 19.9688 20.4009 18.9531Z" fill="#64748B"/>
</svg>
