<svg width="24" height="21" viewBox="0 0 24 21" fill="none" xmlns="http://www.w3.org/2000/svg">
<g clip-path="url(#clip0_2_4169)">
<path fill-rule="evenodd" clip-rule="evenodd" d="M17.1107 2.04671C18.384 2.04671 19.8303 2.94646 20.5235 3.96514C21.1649 4.90814 21.3307 5.66735 21.3307 6.84579C21.3307 8.85072 19.6237 11.5019 18.3636 12.9435C18.151 13.1873 17.9696 13.4276 17.7425 13.6546L16.8332 14.6553C16.2373 15.2451 15.2871 16.2013 14.6601 16.7034C14.582 16.7659 14.5519 16.808 14.4787 16.8764C13.7363 17.5708 12.9723 18.2207 11.8238 18.2207C10.8736 18.2207 10.3199 17.775 9.81172 17.3449C9.73003 17.2752 9.72042 17.2825 9.63633 17.2092C9.56786 17.1479 9.54623 17.1167 9.47536 17.059L8.92397 16.5893C8.77862 16.4488 8.73297 16.3995 8.5744 16.2734C8.33535 16.0824 8.16958 15.8601 7.9077 15.6511C7.41998 15.2619 6.49019 14.1868 5.99287 13.6558C5.28892 12.9026 4.27745 11.586 3.75129 10.6983C2.92842 9.30961 2.40466 8.27411 2.40466 6.40252C2.40466 5.29735 2.95124 4.14173 3.68162 3.41496C5.25168 1.8533 7.28904 1.58181 9.10777 2.94286C10.0424 3.6432 10.7571 4.80723 10.8857 6.00851C10.9385 6.50944 10.8064 6.86622 11.0154 7.25663C11.5043 8.1708 12.8461 7.80561 12.8461 6.7581C12.8461 5.59887 13.0047 4.81084 13.7591 3.80537L14.2937 3.22876C14.7021 2.91403 14.6625 2.84916 15.3196 2.52121C15.7856 2.28937 16.4403 2.04791 17.1119 2.04791L17.1107 2.04671ZM0.493439 6.17909V7.06803C0.493439 8.67774 1.398 10.5433 2.02266 11.5824C2.21847 11.9092 2.41067 12.1879 2.61729 12.4978L4.08164 14.4102C4.8901 15.3172 5.23246 15.6968 6.12501 16.5881C6.79051 17.2536 8.64888 18.9678 9.34322 19.4123C11.0094 20.4802 13.2594 20.3529 14.8066 19.1156L17.5888 16.6097C19.369 14.8295 21.1013 12.911 22.2365 10.6382L22.693 9.5847C23.2167 8.11314 23.2432 7.80561 23.2432 6.26918C23.2432 4.71834 22.4611 3.10983 21.3884 2.0371C18.8897 -0.461551 15.3472 -0.533628 12.7464 2.0371C12.5518 2.2293 11.974 2.94286 11.9139 3.20353H11.825C11.6881 2.61491 10.4832 1.51094 9.90541 1.12413C8.15876 -0.0447093 6.0253 -0.18646 4.1381 0.760144C2.76024 1.45088 1.82445 2.37826 1.1169 3.78135C0.837003 4.33513 0.49464 5.35501 0.49464 6.18029L0.493439 6.17909Z" fill="#212529"/>
</g>
<defs>
<clipPath id="clip0_2_4169">
<rect width="22.7488" height="20" fill="white" transform="translate(0.493286 0.134277)"/>
</clipPath>
</defs>
</svg>
