<svg width="22" height="30" viewBox="0 0 22 30" fill="none" xmlns="http://www.w3.org/2000/svg">
<g clip-path="url(#clip0_2_4069)">
<mask id="mask0_2_4069" style="mask-type:luminance" maskUnits="userSpaceOnUse" x="0" y="0" width="21" height="30">
<path d="M20.8565 0.391602H0.340027V29.609H20.8565V0.391602Z" fill="white"/>
</mask>
<g mask="url(#mask0_2_4069)">
<path fill-rule="evenodd" clip-rule="evenodd" d="M20.201 12.6078C20.201 16.2118 19.3776 18.8974 17.7317 20.6476C16.0857 22.3977 13.5434 23.2722 10.1152 23.2722C6.91248 23.2722 4.48208 22.3971 2.82545 20.6476C1.16834 18.8979 0.33954 16.2591 0.340027 12.7311V0.894627C0.341001 0.617062 0.565488 0.392575 0.842566 0.391602H6.65001C6.92757 0.392575 7.15206 0.617062 7.15304 0.894627V12.9897C7.15304 14.4301 7.4194 15.5389 7.96187 16.3209C8.93822 17.6153 10.7789 17.8728 12.0733 16.8965C12.2676 16.75 12.4429 16.58 12.5948 16.39C13.1251 15.6562 13.389 14.5747 13.3875 13.1454V10.8806H20.201V12.6078Z" fill="#203E7A"/>
<path fill-rule="evenodd" clip-rule="evenodd" d="M19.6754 9.5581H13.3893V0.918001C13.3903 0.627288 13.6255 0.392089 13.9156 0.391602H14.8564C14.8584 3.34158 17.2503 5.73206 20.2003 5.73206H20.2017V9.5581H19.6754Z" fill="#203E7A"/>
<path fill-rule="evenodd" clip-rule="evenodd" d="M16.1948 0.391602H19.6746C19.9653 0.392575 20.2005 0.627776 20.201 0.918001V4.40267C17.9883 4.40267 16.1944 2.60872 16.1944 0.395984L16.1948 0.391602Z" fill="#F4821F"/>
<path fill-rule="evenodd" clip-rule="evenodd" d="M1.48145 29.0213C2.25036 29.0213 2.62142 28.5933 2.62142 27.9647V26.4497H2.07116V27.9495C2.07116 28.2767 1.80576 28.5422 1.47853 28.5422C1.1513 28.5422 0.885905 28.2767 0.885905 27.9495V26.4497H0.340027V27.9695C0.340027 28.5904 0.711088 29.0223 1.47999 29.0223L1.48145 29.0213ZM5.94246 28.976V28.5027H4.72312L5.91617 26.8807V26.4487H4.0185V26.9225H5.21154L4.0185 28.5397V28.9741L5.94246 28.976ZM8.51311 29.0213C8.95477 29.0316 9.3643 28.791 9.5698 28.4L9.10622 28.1765C8.9913 28.3995 8.76242 28.5407 8.51165 28.5436C8.05342 28.5207 7.70037 28.1312 7.72326 27.673C7.7442 27.2464 8.08507 26.9055 8.51165 26.8845C8.76194 26.8889 8.99032 27.0297 9.10622 27.2518L9.5698 27.0243C9.3643 26.6338 8.95429 26.3942 8.51311 26.4068C7.79144 26.3855 7.18907 26.9527 7.16715 27.6744C7.14573 28.3961 7.71304 28.9984 8.4347 29.0203C8.46052 29.0213 8.48681 29.0213 8.51262 29.0203L8.51311 29.0213ZM13.2122 28.976L12.2388 26.4497H11.5649L10.5876 28.976H11.2011L11.3604 28.548H12.4438L12.5992 28.976H13.2122ZM12.2958 28.0747H11.5079L11.9018 26.9873L12.2958 28.0747ZM16.8439 29.6101L15.9168 28.0148C16.2587 27.9325 16.4919 27.616 16.4699 27.2649C16.4866 26.8305 16.1481 26.4653 15.7138 26.4487C15.6831 26.4477 15.6524 26.4483 15.6217 26.4507H14.4393V28.9771H14.9775V28.0791H15.3714L16.2265 29.6096L16.8439 29.6101ZM15.5418 27.6062H14.9775V26.9245H15.5399C15.7284 26.9045 15.8968 27.0414 15.9168 27.2293C15.9367 27.4173 15.8 27.5863 15.612 27.6062C15.5881 27.6087 15.5642 27.6087 15.5404 27.6062H15.5418ZM18.8624 28.9775C19.6542 28.9775 20.2035 28.4774 20.2035 27.7163C20.2035 26.9552 19.6532 26.4512 18.8624 26.4512H17.8661V28.9775H18.8624ZM18.8624 28.5042H18.4041V26.925H18.8624C19.2695 26.8948 19.624 27.2006 19.6542 27.6077C19.6567 27.6437 19.6567 27.6803 19.6542 27.7163C19.6717 28.1336 19.3479 28.4862 18.9306 28.5037C18.9077 28.5046 18.8843 28.5046 18.8609 28.5037L18.8624 28.5042Z" fill="#233C7E"/>
<path fill-rule="evenodd" clip-rule="evenodd" d="M20.8578 26.3996V26.4054C20.8578 26.6654 20.6474 26.8758 20.3878 26.8763C20.1278 26.8763 19.9174 26.666 19.917 26.4064C19.917 26.1464 20.1273 25.936 20.3869 25.9355H20.8573L20.8578 26.3996Z" fill="#233C7E"/>
</g>
</g>
<defs>
<clipPath id="clip0_2_4069">
<rect width="21" height="29.2174" fill="white" transform="translate(0.340027 0.391602)"/>
</clipPath>
</defs>
</svg>
