<svg width="25" height="25" viewBox="0 0 25 25" fill="none" xmlns="http://www.w3.org/2000/svg">
<g clip-path="url(#clip0_2_263)">
<path fill-rule="evenodd" clip-rule="evenodd" d="M1.49743 3.28738C1.57866 2.88121 1.97378 2.6178 2.37995 2.69903L3.42931 2.9089C4.61456 3.14595 5.50608 4.12914 5.62635 5.33186L5.71162 6.18446H19.2871C21.2713 6.18446 22.7272 8.0492 22.246 9.9742L21.1232 14.4652C20.6502 16.3572 18.9503 17.6844 17.0001 17.6844H8.00722C6.61516 17.6844 5.44266 16.6442 5.2768 15.2621L4.28732 7.01647L4.1338 5.48112C4.07913 4.93443 3.6739 4.48752 3.13515 4.37977L2.08579 4.1699C1.67962 4.08867 1.4162 3.69355 1.49743 3.28738ZM9.23273 13.1843C8.81852 13.1843 8.48273 13.5201 8.48273 13.9343C8.48273 14.3485 8.81852 14.6843 9.23273 14.6843H13.2327C13.6469 14.6843 13.9827 14.3485 13.9827 13.9343C13.9827 13.5201 13.6469 13.1843 13.2327 13.1843H9.23273Z" fill="white"/>
<path d="M8.73273 21.9343C9.56115 21.9343 10.2327 21.2628 10.2327 20.4343C10.2327 19.6059 9.56115 18.9343 8.73273 18.9343C7.9043 18.9343 7.23273 19.6059 7.23273 20.4343C7.23273 21.2628 7.9043 21.9343 8.73273 21.9343Z" fill="white"/>
<path d="M17.7327 21.9343C18.5612 21.9343 19.2327 21.2628 19.2327 20.4343C19.2327 19.6059 18.5612 18.9343 17.7327 18.9343C16.9043 18.9343 16.2327 19.6059 16.2327 20.4343C16.2327 21.2628 16.9043 21.9343 17.7327 21.9343Z" fill="white"/>
</g>
<defs>
<clipPath id="clip0_2_263">
<rect width="24" height="24" fill="white" transform="translate(0.232727 0.434326)"/>
</clipPath>
</defs>
</svg>
