<svg width="26" height="36" viewBox="0 0 26 36" fill="none" xmlns="http://www.w3.org/2000/svg">
<path d="M12.5938 4.65625C19.5508 4.65625 25.1875 10.293 25.1875 17.25C25.1875 24.207 19.5508 29.8438 12.5938 29.8438C5.63672 29.8438 0 24.207 0 17.25C0 10.293 5.63672 4.65625 12.5938 4.65625ZM18.7383 13.2891C18.9414 12.4766 18.4336 12.1211 17.875 12.3242L5.73828 16.9961C4.92578 17.3008 4.92578 17.8086 5.58594 18.0117L8.68359 18.9766L15.8945 14.4062C16.25 14.2031 16.5547 14.3555 16.3008 14.5586L10.4609 19.8398L10.2578 23.0391C10.5625 23.0391 10.7148 22.8867 10.8672 22.7344L12.3906 21.2617L15.5391 23.5977C16.1484 23.9023 16.5547 23.75 16.707 23.0391L18.7383 13.2891Z" fill="#64748B"/>
</svg>
