<svg width="14" height="14" viewBox="0 0 14 14" fill="none" xmlns="http://www.w3.org/2000/svg">
<path d="M6.17137 1.23127C6.32372 0.92658 6.56916 0.774236 6.9077 0.774236C7.24624 0.774236 7.49169 0.92658 7.64403 1.23127L9.29442 4.58283L13.0015 5.14142C13.34 5.17528 13.56 5.35301 13.6616 5.67463C13.7632 5.99624 13.6955 6.27554 13.4585 6.51252L10.7671 9.12775L11.4018 12.8348C11.4526 13.1564 11.3426 13.4145 11.0718 13.6092C10.8009 13.8039 10.5216 13.825 10.2339 13.6727L6.9077 11.9461L3.58153 13.6727C3.29377 13.8419 3.01447 13.825 2.74364 13.6219C2.47281 13.4188 2.36278 13.1564 2.41356 12.8348L3.04833 9.12775L0.356921 6.51252C0.119942 6.27554 0.0522339 5.99624 0.153796 5.67463C0.255359 5.35301 0.475411 5.17528 0.813953 5.14142L4.52098 4.58283L6.17137 1.23127Z" fill="#FE7300"/>
</svg>
